{"title":"The Employer 2013 DVDrip English Klam","uid":8683700,"size":1565144752,"categoryP":"video","categoryS":"movies","magnet":"?xt=urn:btih:e166a3332f088213a3e8b2ec141ef8820836b7f6&amp;dn=The+Employer+2013+DVDrip+English+Klam&amp;tr=udp%3A%2F%2Ftracker.openbittorrent.com%3A80&amp;tr=udp%3A%2F%2Fopen.demonii.com%3A1337&amp;tr=udp%3A%2F%2Ftracker.coppersurfer.tk%3A6969&amp;tr=udp%3A%2F%2Fexodus.desync.com%3A6969","seeders":1,"leechers":1,"uploader":"Klambake","files":-1,"time":1373749995,"description":"With: Malcolm McDowell, David Dastmalchian and Paige Howard\n\nVijf uitvoerend bestuurders worden wakker, opgesloten in een donkere kamer. Ze ontdekken al snel een connectie met elkaar; zij hebben allen onlangs gesolliciteerd naar een baan bij de mysterieuze Carcharias Corporation. Mr. Wells, de bestuursvoorzitter van Carcharias, deelt hen dan mee dat de enige manier waarop ze de donkere kamer kunnen verlaten en de baan kunnen krijgen, is door de andere kandidaten te vermoorden. Dit is de Carcharias-methode, die is opgezet om ervoor te zorgen dat alleen de meest meedogenloze werknemers zich aansluiten bij het bedrijf.\n\nFive highly qualified applicants interview for a coveted job with the Carcharias Corporation, a powerful conglomerate whose business practices are shrouded in mystery. On the night before ...\n &lt;a href=&quot;\nhttp://www.imdb.com/title/tt1863203&quot; rel=&quot;nofollow&quot; target=&quot;_NEW&quot;&gt;\nhttp://www.imdb.com/title/tt1863203&lt;/a&gt;\t\n\n------------------------ Dutch Friends ------------------------\n---------------------------------------------------------------\n- Bezoek ook eens mijn vrienden op: &lt;a href=&quot; http://www.Film-Test.nl&quot; rel=&quot;nofollow&quot; target=&quot;_NEW&quot;&gt; http://www.Film-Test.nl&lt;/a&gt; --\n----- voor mijn Nederlandse Sync. ondertitels ---- en meer ----\n------- http://www.Film-Test.nl ---- Over Films en meer -------\n---------------------------------------------------------------\n\nGeneral:\n\nComplete name                    : The EmployerThe Employer.avi\nFormat                           : DivX\nFormat/Info                      : Hack of AVI\nFile size                        : 1.46 GiB\nDuration                         : 1h 28mn\nOverall bit rate                 : 2 348 Kbps\n\nVideo:\n\nFormat                           : MPEG-4 Visual\nFormat profile                   : Advanced Simple@L5\nFormat settings, BVOP            : 1\nFormat settings, QPel            : No\nFormat settings, GMC             : No warppoints\nFormat settings, Matrix          : Default (H.263)\nMuxing mode                      : Packed bitstream\nCodec ID                         : DX50\nCodec ID/Hint                    : DivX 5\nDuration                         : 1h 28mn\nBit rate                         : 1 888 Kbps\nWidth                            : 720 pixels\nHeight                           : 400 pixels\nDisplay aspect ratio             : 16:9\nFrame rate                       : 29.970 fps\nColor space                      : YUV\nChroma subsampling               : 4:2:0\nBit depth                        : 8 bits\nScan type                        : Progressive\nCompression mode                 : Lossy\nBits/(Pixel*Frame)               : 0.219\nStream size                      : 1.17 GiB (80%)\nTitle                            : Video \nWriting library                  : XviD 1.2.1 (UTC 2008-12-04)\n\nAudio:\n\nFormat                           : AC-3\nFormat/Info                      : Audio Coding 3\nMode extension                   : CM (complete main)\nCodec ID                         : 2000\nDuration                         : 1h 28mn\nBit rate mode                    : Constant\nBit rate                         : 448 Kbps\nChannel(s)                       : 6 channels\nChannel positions                : Front: L C R, Side: L R, LFE\nSampling rate                    : 48.0 KHz\nBit depth                        : 16 bits\nCompression mode                 : Lossy\nStream size                      : 285 MiB (19%)\nAlignment                        : Split accross interleaves\nInterleave, duration             : 33 ms (1.00 video frame)\nInterleave, preload duration     : 500 ms\nTitle                            : Audio","torrent":{"xt":"urn:btih:e166a3332f088213a3e8b2ec141ef8820836b7f6","amp;dn":"The+Employer+2013+DVDrip+English+Klam","amp;tr":["udp%3A%2F%2Ftracker.openbittorrent.com%3A80","udp%3A%2F%2Fopen.demonii.com%3A1337","udp%3A%2F%2Ftracker.coppersurfer.tk%3A6969","udp%3A%2F%2Fexodus.desync.com%3A6969"],"infoHash":"e166a3332f088213a3e8b2ec141ef8820836b7f6","infoHashBuffer":{"type":"Buffer","data":[225,102,163,51,47,8,130,19,163,232,178,236,20,30,248,130,8,54,183,246]},"announce":[],"urlList":[]}}